<svg xmlns="http://www.w3.org/2000/svg" width="64" height="64" viewBox="0 0 64 64" role="img" aria-labelledby="faviconTitle">
  <title id="faviconTitle">87code</title>
  <defs>
    <linearGradient id="silver" x1="0" x2="1" y1="0" y2="1">
      <stop offset="0" stop-color="#ffffff"/>
      <stop offset="0.55" stop-color="#9ca3ad"/>
      <stop offset="1" stop-color="#e2e5e9"/>
    </linearGradient>
    <linearGradient id="orange" x1="0" x2="1" y1="0" y2="1">
      <stop offset="0" stop-color="#ff9a42"/>
      <stop offset="1" stop-color="#f05000"/>
    </linearGradient>
  </defs>
  <rect width="64" height="64" rx="10" fill="#090a0c"/>
  <path d="M10 10 3 15v12l-3 3v4l3 3v12l7 5v-9l-3-2v-9l-3-2 3-2v-9l3-2Z" fill="url(#silver)"/>
  <path d="M16 12h19v11H23v5h11v9H23v5h12v11H16c-3 0-5-2-5-5V17c0-3 2-5 5-5Z" fill="url(#silver)"/>
  <path d="M14 28h21v9H14Z" fill="#101115"/>
  <path d="M36 12h19v10L45 53H33l11-30h-8Z" fill="#2c3036"/>
  <path d="m56 10 7 5v12l3 3v4l-3 3v12l-7 5v-9l3-2v-9l3-2-3-2v-9l-3-2Z" fill="url(#orange)"/>
</svg>
